<svg width="228" height="39" viewBox="0 0 228 39" fill="none" xmlns="http://www.w3.org/2000/svg">
<mask id="path-1-outside-1_20_4" maskUnits="userSpaceOnUse" x="-1" y="-1" width="230" height="41" fill="black">
<rect fill="white" x="-1" y="-1" width="230" height="41"/>
<path d="M13.04 30V27.24C11.8133 28.4667 10.7467 29.3067 9.84 29.76C8.96 30.1867 8.04 30.4 7.08 30.4C4.89333 30.4 3.18667 29.5733 1.96 27.92C0.76 26.2667 0.16 23.9467 0.16 20.96V18.8C0.16 15.8933 0.893333 13.5867 2.36 11.88C3.82667 10.1733 5.94667 9.32 8.72 9.32C9.41333 9.32 10.0933 9.38667 10.76 9.52C11.4533 9.65333 12.1333 9.84 12.8 10.08V0.4H17.4V30H13.04ZM4.88 20.96C4.88 22.7467 5.17333 24.0533 5.76 24.88C6.37333 25.7067 7.22667 26.12 8.32 26.12C8.93333 26.12 9.58667 25.9467 10.28 25.6C10.9733 25.2267 11.8133 24.5333 12.8 23.52V14.24C11.4933 13.7067 10.2933 13.44 9.2 13.44C7.65333 13.44 6.54667 13.92 5.88 14.88C5.21333 15.84 4.88 17.1467 4.88 18.8V20.96ZM28.4581 5.88H23.6181V1.12H28.4581V5.88ZM19.5781 38.92V34.6C20.9115 34.6 21.9381 34.28 22.6581 33.64C23.3781 33 23.7381 31.84 23.7381 30.16V9.72H28.3381V30.16C28.3381 31.68 28.0848 33.1067 27.5781 34.44C27.0981 35.7733 26.2181 36.8533 24.9381 37.68C23.6848 38.5067 21.8981 38.92 19.5781 38.92ZM50.0356 30.2C48.6756 30.2 47.5823 29.92 46.7556 29.36C45.9556 28.8 45.369 28.1067 44.9956 27.28C43.849 28.3467 42.7423 29.1333 41.6756 29.64C40.609 30.1467 39.4623 30.4 38.2356 30.4C36.449 30.4 35.129 29.8267 34.2756 28.68C33.449 27.5333 33.0356 26.08 33.0356 24.32C33.0356 23.1467 33.249 22.12 33.6756 21.24C34.129 20.3333 34.8623 19.6267 35.8756 19.12C36.889 18.6133 38.2756 18.36 40.0356 18.36C40.729 18.36 41.449 18.4133 42.1956 18.52C42.9423 18.6 43.689 18.7067 44.4356 18.84V16.48C44.4356 15.36 44.129 14.6 43.5156 14.2C42.9023 13.7733 42.0756 13.56 41.0356 13.56C40.2356 13.56 39.3556 13.6667 38.3956 13.88C37.4623 14.0933 36.449 14.4267 35.3556 14.88L34.0356 10.96C36.729 9.86667 39.169 9.32 41.3556 9.32C43.329 9.32 44.849 9.65333 45.9156 10.32C47.009 10.9867 47.769 11.8667 48.1956 12.96C48.6223 14.0533 48.8356 15.2267 48.8356 16.48V24.28C48.8356 24.68 48.9423 25.0667 49.1556 25.44C49.3956 25.7867 49.849 25.96 50.5156 25.96H50.9556V30.2H50.0356ZM37.4756 24.24C37.4756 24.96 37.6356 25.5333 37.9556 25.96C38.2756 26.36 38.7423 26.56 39.3556 26.56C39.969 26.56 40.6623 26.4 41.4356 26.08C42.209 25.76 43.209 25.0133 44.4356 23.84V22.12C43.049 21.88 41.689 21.76 40.3556 21.76C39.3156 21.76 38.569 21.9733 38.1156 22.4C37.689 22.8267 37.4756 23.44 37.4756 24.24ZM64.8691 13.6C64.2024 13.6 63.4424 13.76 62.5891 14.08C61.7357 14.4 60.7224 15.0267 59.5491 15.96V30H54.9491V9.72H59.3091V12.44C60.5624 11.3467 61.7491 10.56 62.8691 10.08C63.9891 9.57333 65.1224 9.32 66.2691 9.32C68.2157 9.32 69.6957 9.94667 70.7091 11.2C71.7224 12.4267 72.2291 14.16 72.2291 16.4V30H67.6291V16.96C67.6291 14.72 66.7091 13.6 64.8691 13.6ZM95.1484 32.04C95.1484 34.2 94.2951 35.88 92.5884 37.08C90.9084 38.3067 88.5618 38.92 85.5484 38.92C84.1351 38.92 82.6418 38.76 81.0684 38.44C79.4951 38.12 78.0418 37.5867 76.7084 36.84L78.0284 33.2C79.3084 33.84 80.5751 34.2933 81.8284 34.56C83.0818 34.8533 84.3084 35 85.5084 35C87.1884 35 88.4684 34.7733 89.3484 34.32C90.2284 33.8667 90.6684 33.2667 90.6684 32.52C90.6684 31.3733 89.9884 30.8 88.6284 30.8H83.8284C82.5218 30.8 81.4684 30.5867 80.6684 30.16C79.8684 29.7333 79.2818 29.1867 78.9084 28.52C78.5351 27.8267 78.3484 27.1067 78.3484 26.36C78.3484 25.5867 78.5084 24.8667 78.8284 24.2C79.1751 23.5067 79.6418 22.8667 80.2284 22.28C79.2684 21.6933 78.4951 20.9067 77.9084 19.92C77.3484 18.9333 77.0684 17.7467 77.0684 16.36C77.0684 14.7867 77.4018 13.48 78.0684 12.44C78.7351 11.4 79.6418 10.6267 80.7884 10.12C81.9618 9.58667 83.2551 9.32 84.6684 9.32H85.3484C85.8818 9.32 86.4018 9.36 86.9084 9.44C87.4151 9.49333 87.8951 9.58667 88.3484 9.72H95.5884V13.64L91.5884 13C91.9884 13.4267 92.2951 13.96 92.5084 14.6C92.7484 15.2133 92.8684 15.9733 92.8684 16.88C92.8684 18.24 92.5218 19.4133 91.8284 20.4C91.1618 21.36 90.2551 22.1067 89.1084 22.64C87.9884 23.1467 86.7351 23.4 85.3484 23.4H84.6684C84.1351 23.4 83.6284 23.36 83.1484 23.28C82.8551 23.6 82.6418 23.9333 82.5084 24.28C82.3751 24.6 82.3084 24.9067 82.3084 25.2C82.3084 26.1333 82.9084 26.6 84.1084 26.6H88.9884C90.8284 26.6 92.3084 27.08 93.4284 28.04C94.5751 28.9733 95.1484 30.3067 95.1484 32.04ZM85.3484 19.64C86.1751 19.64 86.8951 19.36 87.5084 18.8C88.1484 18.24 88.4684 17.4267 88.4684 16.36C88.4684 15.2933 88.1484 14.48 87.5084 13.92C86.8951 13.36 86.1751 13.08 85.3484 13.08H84.6684C83.8151 13.08 83.0684 13.36 82.4284 13.92C81.8151 14.48 81.5084 15.2933 81.5084 16.36C81.5084 17.4267 81.8151 18.24 82.4284 18.8C83.0684 19.36 83.8151 19.64 84.6684 19.64H85.3484ZM116.158 18.64V21.04C116.158 23.8667 115.385 26.1333 113.838 27.84C112.292 29.5467 110.105 30.4 107.278 30.4C104.452 30.4 102.265 29.5467 100.718 27.84C99.1718 26.1333 98.3984 23.8667 98.3984 21.04V18.64C98.3984 15.8133 99.1584 13.56 100.678 11.88C102.225 10.1733 104.425 9.32 107.278 9.32C110.132 9.32 112.318 10.1733 113.838 11.88C115.385 13.56 116.158 15.8133 116.158 18.64ZM111.438 18.64C111.438 17.0133 111.078 15.7467 110.358 14.84C109.638 13.9067 108.612 13.44 107.278 13.44C105.945 13.44 104.918 13.9067 104.198 14.84C103.478 15.7467 103.118 17.0133 103.118 18.64V21.04C103.118 22.6667 103.478 23.9467 104.198 24.88C104.918 25.8133 105.945 26.28 107.278 26.28C108.612 26.28 109.638 25.8133 110.358 24.88C111.078 23.9467 111.438 22.6667 111.438 21.04V18.64ZM120.156 19.4V15.4H132.316V19.4H120.156ZM154.568 20.92C154.568 23.8267 153.848 26.1333 152.408 27.84C150.968 29.5467 148.861 30.4 146.088 30.4C143.208 30.4 140.288 29.6 137.328 28V0.4H141.928V12.4C143.155 11.1733 144.208 10.36 145.088 9.96C145.968 9.53333 146.875 9.32 147.808 9.32C149.941 9.32 151.595 10.1467 152.768 11.8C153.968 13.4533 154.568 15.7733 154.568 18.76V20.92ZM146.568 13.6C145.928 13.6 145.248 13.7867 144.528 14.16C143.835 14.5333 142.968 15.2667 141.928 16.36V25.44C142.648 25.7333 143.301 25.9467 143.888 26.08C144.501 26.2133 145.101 26.28 145.688 26.28C147.181 26.28 148.248 25.8 148.888 24.84C149.528 23.88 149.848 22.5733 149.848 20.92V18.76C149.848 16.9733 149.555 15.6667 148.968 14.84C148.408 14.0133 147.608 13.6 146.568 13.6ZM159.751 24.28V0.4H164.351V24.28C164.351 24.68 164.444 25.0667 164.631 25.44C164.844 25.7867 165.244 25.96 165.831 25.96H166.471V30.2H165.351C163.831 30.2 162.671 29.9067 161.871 29.32C161.071 28.7333 160.511 27.9867 160.191 27.08C159.898 26.1733 159.751 25.24 159.751 24.28ZM187.526 18.64V21.04C187.526 23.8667 186.752 26.1333 185.206 27.84C183.659 29.5467 181.472 30.4 178.646 30.4C175.819 30.4 173.632 29.5467 172.086 27.84C170.539 26.1333 169.766 23.8667 169.766 21.04V18.64C169.766 15.8133 170.526 13.56 172.046 11.88C173.592 10.1733 175.792 9.32 178.646 9.32C181.499 9.32 183.686 10.1733 185.206 11.88C186.752 13.56 187.526 15.8133 187.526 18.64ZM182.806 18.64C182.806 17.0133 182.446 15.7467 181.726 14.84C181.006 13.9067 179.979 13.44 178.646 13.44C177.312 13.44 176.286 13.9067 175.566 14.84C174.846 15.7467 174.486 17.0133 174.486 18.64V21.04C174.486 22.6667 174.846 23.9467 175.566 24.88C176.286 25.8133 177.312 26.28 178.646 26.28C179.979 26.28 181.006 25.8133 181.726 24.88C182.446 23.9467 182.806 22.6667 182.806 21.04V18.64ZM209.523 32.04C209.523 34.2 208.67 35.88 206.963 37.08C205.283 38.3067 202.937 38.92 199.923 38.92C198.51 38.92 197.017 38.76 195.443 38.44C193.87 38.12 192.417 37.5867 191.083 36.84L192.403 33.2C193.683 33.84 194.95 34.2933 196.203 34.56C197.457 34.8533 198.683 35 199.883 35C201.563 35 202.843 34.7733 203.723 34.32C204.603 33.8667 205.043 33.2667 205.043 32.52C205.043 31.3733 204.363 30.8 203.003 30.8H198.203C196.897 30.8 195.843 30.5867 195.043 30.16C194.243 29.7333 193.657 29.1867 193.283 28.52C192.91 27.8267 192.723 27.1067 192.723 26.36C192.723 25.5867 192.883 24.8667 193.203 24.2C193.55 23.5067 194.017 22.8667 194.603 22.28C193.643 21.6933 192.87 20.9067 192.283 19.92C191.723 18.9333 191.443 17.7467 191.443 16.36C191.443 14.7867 191.777 13.48 192.443 12.44C193.11 11.4 194.017 10.6267 195.163 10.12C196.337 9.58667 197.63 9.32 199.043 9.32H199.723C200.257 9.32 200.777 9.36 201.283 9.44C201.79 9.49333 202.27 9.58667 202.723 9.72H209.963V13.64L205.963 13C206.363 13.4267 206.67 13.96 206.883 14.6C207.123 15.2133 207.243 15.9733 207.243 16.88C207.243 18.24 206.897 19.4133 206.203 20.4C205.537 21.36 204.63 22.1067 203.483 22.64C202.363 23.1467 201.11 23.4 199.723 23.4H199.043C198.51 23.4 198.003 23.36 197.523 23.28C197.23 23.6 197.017 23.9333 196.883 24.28C196.75 24.6 196.683 24.9067 196.683 25.2C196.683 26.1333 197.283 26.6 198.483 26.6H203.363C205.203 26.6 206.683 27.08 207.803 28.04C208.95 28.9733 209.523 30.3067 209.523 32.04ZM199.723 19.64C200.55 19.64 201.27 19.36 201.883 18.8C202.523 18.24 202.843 17.4267 202.843 16.36C202.843 15.2933 202.523 14.48 201.883 13.92C201.27 13.36 200.55 13.08 199.723 13.08H199.043C198.19 13.08 197.443 13.36 196.803 13.92C196.19 14.48 195.883 15.2933 195.883 16.36C195.883 17.4267 196.19 18.24 196.803 18.8C197.443 19.36 198.19 19.64 199.043 19.64H199.723ZM219.613 26.4C220.6 26.4 221.413 26.24 222.053 25.92C222.693 25.5733 223.013 25.0667 223.013 24.4C223.013 23.8133 222.8 23.36 222.373 23.04C221.973 22.6933 221.24 22.3867 220.173 22.12L217.893 21.52C216.133 21.0667 214.827 20.3067 213.973 19.24C213.147 18.1733 212.733 16.9067 212.733 15.44C212.733 13.7067 213.333 12.2533 214.533 11.08C215.733 9.90667 217.587 9.32 220.093 9.32C221.107 9.32 222.173 9.44 223.293 9.68C224.413 9.92 225.587 10.3067 226.813 10.84L225.493 14.76C224.373 14.2267 223.36 13.8533 222.453 13.64C221.547 13.4267 220.747 13.32 220.053 13.32C218.16 13.32 217.213 13.96 217.213 15.24C217.213 15.7467 217.373 16.1467 217.693 16.44C218.04 16.7333 218.667 17 219.573 17.24L221.853 17.84C223.8 18.3467 225.213 19.12 226.093 20.16C227 21.2 227.453 22.5067 227.453 24.08C227.453 25.9467 226.813 27.4667 225.533 28.64C224.28 29.8133 222.293 30.4 219.573 30.4C217.253 30.4 214.813 29.8667 212.253 28.8L213.493 25C214.747 25.5067 215.88 25.8667 216.893 26.08C217.907 26.2933 218.813 26.4 219.613 26.4Z"/>
</mask>
<path d="M13.04 30V27.24C11.8133 28.4667 10.7467 29.3067 9.84 29.76C8.96 30.1867 8.04 30.4 7.08 30.4C4.89333 30.4 3.18667 29.5733 1.96 27.92C0.76 26.2667 0.16 23.9467 0.16 20.96V18.8C0.16 15.8933 0.893333 13.5867 2.36 11.88C3.82667 10.1733 5.94667 9.32 8.72 9.32C9.41333 9.32 10.0933 9.38667 10.76 9.52C11.4533 9.65333 12.1333 9.84 12.8 10.08V0.4H17.4V30H13.04ZM4.88 20.96C4.88 22.7467 5.17333 24.0533 5.76 24.88C6.37333 25.7067 7.22667 26.12 8.32 26.12C8.93333 26.12 9.58667 25.9467 10.28 25.6C10.9733 25.2267 11.8133 24.5333 12.8 23.52V14.24C11.4933 13.7067 10.2933 13.44 9.2 13.44C7.65333 13.44 6.54667 13.92 5.88 14.88C5.21333 15.84 4.88 17.1467 4.88 18.8V20.96ZM28.4581 5.88H23.6181V1.12H28.4581V5.88ZM19.5781 38.92V34.6C20.9115 34.6 21.9381 34.28 22.6581 33.64C23.3781 33 23.7381 31.84 23.7381 30.16V9.72H28.3381V30.16C28.3381 31.68 28.0848 33.1067 27.5781 34.44C27.0981 35.7733 26.2181 36.8533 24.9381 37.68C23.6848 38.5067 21.8981 38.92 19.5781 38.92ZM50.0356 30.2C48.6756 30.2 47.5823 29.92 46.7556 29.36C45.9556 28.8 45.369 28.1067 44.9956 27.28C43.849 28.3467 42.7423 29.1333 41.6756 29.64C40.609 30.1467 39.4623 30.4 38.2356 30.4C36.449 30.4 35.129 29.8267 34.2756 28.68C33.449 27.5333 33.0356 26.08 33.0356 24.32C33.0356 23.1467 33.249 22.12 33.6756 21.24C34.129 20.3333 34.8623 19.6267 35.8756 19.12C36.889 18.6133 38.2756 18.36 40.0356 18.36C40.729 18.36 41.449 18.4133 42.1956 18.52C42.9423 18.6 43.689 18.7067 44.4356 18.84V16.48C44.4356 15.36 44.129 14.6 43.5156 14.2C42.9023 13.7733 42.0756 13.56 41.0356 13.56C40.2356 13.56 39.3556 13.6667 38.3956 13.88C37.4623 14.0933 36.449 14.4267 35.3556 14.88L34.0356 10.96C36.729 9.86667 39.169 9.32 41.3556 9.32C43.329 9.32 44.849 9.65333 45.9156 10.32C47.009 10.9867 47.769 11.8667 48.1956 12.96C48.6223 14.0533 48.8356 15.2267 48.8356 16.48V24.28C48.8356 24.68 48.9423 25.0667 49.1556 25.44C49.3956 25.7867 49.849 25.96 50.5156 25.96H50.9556V30.2H50.0356ZM37.4756 24.24C37.4756 24.96 37.6356 25.5333 37.9556 25.96C38.2756 26.36 38.7423 26.56 39.3556 26.56C39.969 26.56 40.6623 26.4 41.4356 26.08C42.209 25.76 43.209 25.0133 44.4356 23.84V22.12C43.049 21.88 41.689 21.76 40.3556 21.76C39.3156 21.76 38.569 21.9733 38.1156 22.4C37.689 22.8267 37.4756 23.44 37.4756 24.24ZM64.8691 13.6C64.2024 13.6 63.4424 13.76 62.5891 14.08C61.7357 14.4 60.7224 15.0267 59.5491 15.96V30H54.9491V9.72H59.3091V12.44C60.5624 11.3467 61.7491 10.56 62.8691 10.08C63.9891 9.57333 65.1224 9.32 66.2691 9.32C68.2157 9.32 69.6957 9.94667 70.7091 11.2C71.7224 12.4267 72.2291 14.16 72.2291 16.4V30H67.6291V16.96C67.6291 14.72 66.7091 13.6 64.8691 13.6ZM95.1484 32.04C95.1484 34.2 94.2951 35.88 92.5884 37.08C90.9084 38.3067 88.5618 38.92 85.5484 38.92C84.1351 38.92 82.6418 38.76 81.0684 38.44C79.4951 38.12 78.0418 37.5867 76.7084 36.84L78.0284 33.2C79.3084 33.84 80.5751 34.2933 81.8284 34.56C83.0818 34.8533 84.3084 35 85.5084 35C87.1884 35 88.4684 34.7733 89.3484 34.32C90.2284 33.8667 90.6684 33.2667 90.6684 32.52C90.6684 31.3733 89.9884 30.8 88.6284 30.8H83.8284C82.5218 30.8 81.4684 30.5867 80.6684 30.16C79.8684 29.7333 79.2818 29.1867 78.9084 28.52C78.5351 27.8267 78.3484 27.1067 78.3484 26.36C78.3484 25.5867 78.5084 24.8667 78.8284 24.2C79.1751 23.5067 79.6418 22.8667 80.2284 22.28C79.2684 21.6933 78.4951 20.9067 77.9084 19.92C77.3484 18.9333 77.0684 17.7467 77.0684 16.36C77.0684 14.7867 77.4018 13.48 78.0684 12.44C78.7351 11.4 79.6418 10.6267 80.7884 10.12C81.9618 9.58667 83.2551 9.32 84.6684 9.32H85.3484C85.8818 9.32 86.4018 9.36 86.9084 9.44C87.4151 9.49333 87.8951 9.58667 88.3484 9.72H95.5884V13.64L91.5884 13C91.9884 13.4267 92.2951 13.96 92.5084 14.6C92.7484 15.2133 92.8684 15.9733 92.8684 16.88C92.8684 18.24 92.5218 19.4133 91.8284 20.4C91.1618 21.36 90.2551 22.1067 89.1084 22.64C87.9884 23.1467 86.7351 23.4 85.3484 23.4H84.6684C84.1351 23.4 83.6284 23.36 83.1484 23.28C82.8551 23.6 82.6418 23.9333 82.5084 24.28C82.3751 24.6 82.3084 24.9067 82.3084 25.2C82.3084 26.1333 82.9084 26.6 84.1084 26.6H88.9884C90.8284 26.6 92.3084 27.08 93.4284 28.04C94.5751 28.9733 95.1484 30.3067 95.1484 32.04ZM85.3484 19.64C86.1751 19.64 86.8951 19.36 87.5084 18.8C88.1484 18.24 88.4684 17.4267 88.4684 16.36C88.4684 15.2933 88.1484 14.48 87.5084 13.92C86.8951 13.36 86.1751 13.08 85.3484 13.08H84.6684C83.8151 13.08 83.0684 13.36 82.4284 13.92C81.8151 14.48 81.5084 15.2933 81.5084 16.36C81.5084 17.4267 81.8151 18.24 82.4284 18.8C83.0684 19.36 83.8151 19.64 84.6684 19.64H85.3484ZM116.158 18.64V21.04C116.158 23.8667 115.385 26.1333 113.838 27.84C112.292 29.5467 110.105 30.4 107.278 30.4C104.452 30.4 102.265 29.5467 100.718 27.84C99.1718 26.1333 98.3984 23.8667 98.3984 21.04V18.64C98.3984 15.8133 99.1584 13.56 100.678 11.88C102.225 10.1733 104.425 9.32 107.278 9.32C110.132 9.32 112.318 10.1733 113.838 11.88C115.385 13.56 116.158 15.8133 116.158 18.64ZM111.438 18.64C111.438 17.0133 111.078 15.7467 110.358 14.84C109.638 13.9067 108.612 13.44 107.278 13.44C105.945 13.44 104.918 13.9067 104.198 14.84C103.478 15.7467 103.118 17.0133 103.118 18.64V21.04C103.118 22.6667 103.478 23.9467 104.198 24.88C104.918 25.8133 105.945 26.28 107.278 26.28C108.612 26.28 109.638 25.8133 110.358 24.88C111.078 23.9467 111.438 22.6667 111.438 21.04V18.64ZM120.156 19.4V15.4H132.316V19.4H120.156ZM154.568 20.92C154.568 23.8267 153.848 26.1333 152.408 27.84C150.968 29.5467 148.861 30.4 146.088 30.4C143.208 30.4 140.288 29.6 137.328 28V0.4H141.928V12.4C143.155 11.1733 144.208 10.36 145.088 9.96C145.968 9.53333 146.875 9.32 147.808 9.32C149.941 9.32 151.595 10.1467 152.768 11.8C153.968 13.4533 154.568 15.7733 154.568 18.76V20.92ZM146.568 13.6C145.928 13.6 145.248 13.7867 144.528 14.16C143.835 14.5333 142.968 15.2667 141.928 16.36V25.44C142.648 25.7333 143.301 25.9467 143.888 26.08C144.501 26.2133 145.101 26.28 145.688 26.28C147.181 26.28 148.248 25.8 148.888 24.84C149.528 23.88 149.848 22.5733 149.848 20.92V18.76C149.848 16.9733 149.555 15.6667 148.968 14.84C148.408 14.0133 147.608 13.6 146.568 13.6ZM159.751 24.28V0.4H164.351V24.28C164.351 24.68 164.444 25.0667 164.631 25.44C164.844 25.7867 165.244 25.96 165.831 25.96H166.471V30.2H165.351C163.831 30.2 162.671 29.9067 161.871 29.32C161.071 28.7333 160.511 27.9867 160.191 27.08C159.898 26.1733 159.751 25.24 159.751 24.28ZM187.526 18.64V21.04C187.526 23.8667 186.752 26.1333 185.206 27.84C183.659 29.5467 181.472 30.4 178.646 30.4C175.819 30.4 173.632 29.5467 172.086 27.84C170.539 26.1333 169.766 23.8667 169.766 21.04V18.64C169.766 15.8133 170.526 13.56 172.046 11.88C173.592 10.1733 175.792 9.32 178.646 9.32C181.499 9.32 183.686 10.1733 185.206 11.88C186.752 13.56 187.526 15.8133 187.526 18.64ZM182.806 18.64C182.806 17.0133 182.446 15.7467 181.726 14.84C181.006 13.9067 179.979 13.44 178.646 13.44C177.312 13.44 176.286 13.9067 175.566 14.84C174.846 15.7467 174.486 17.0133 174.486 18.64V21.04C174.486 22.6667 174.846 23.9467 175.566 24.88C176.286 25.8133 177.312 26.28 178.646 26.28C179.979 26.28 181.006 25.8133 181.726 24.88C182.446 23.9467 182.806 22.6667 182.806 21.04V18.64ZM209.523 32.04C209.523 34.2 208.67 35.88 206.963 37.08C205.283 38.3067 202.937 38.92 199.923 38.92C198.51 38.92 197.017 38.76 195.443 38.44C193.87 38.12 192.417 37.5867 191.083 36.84L192.403 33.2C193.683 33.84 194.95 34.2933 196.203 34.56C197.457 34.8533 198.683 35 199.883 35C201.563 35 202.843 34.7733 203.723 34.32C204.603 33.8667 205.043 33.2667 205.043 32.52C205.043 31.3733 204.363 30.8 203.003 30.8H198.203C196.897 30.8 195.843 30.5867 195.043 30.16C194.243 29.7333 193.657 29.1867 193.283 28.52C192.91 27.8267 192.723 27.1067 192.723 26.36C192.723 25.5867 192.883 24.8667 193.203 24.2C193.55 23.5067 194.017 22.8667 194.603 22.28C193.643 21.6933 192.87 20.9067 192.283 19.92C191.723 18.9333 191.443 17.7467 191.443 16.36C191.443 14.7867 191.777 13.48 192.443 12.44C193.11 11.4 194.017 10.6267 195.163 10.12C196.337 9.58667 197.63 9.32 199.043 9.32H199.723C200.257 9.32 200.777 9.36 201.283 9.44C201.79 9.49333 202.27 9.58667 202.723 9.72H209.963V13.64L205.963 13C206.363 13.4267 206.67 13.96 206.883 14.6C207.123 15.2133 207.243 15.9733 207.243 16.88C207.243 18.24 206.897 19.4133 206.203 20.4C205.537 21.36 204.63 22.1067 203.483 22.64C202.363 23.1467 201.11 23.4 199.723 23.4H199.043C198.51 23.4 198.003 23.36 197.523 23.28C197.23 23.6 197.017 23.9333 196.883 24.28C196.75 24.6 196.683 24.9067 196.683 25.2C196.683 26.1333 197.283 26.6 198.483 26.6H203.363C205.203 26.6 206.683 27.08 207.803 28.04C208.95 28.9733 209.523 30.3067 209.523 32.04ZM199.723 19.64C200.55 19.64 201.27 19.36 201.883 18.8C202.523 18.24 202.843 17.4267 202.843 16.36C202.843 15.2933 202.523 14.48 201.883 13.92C201.27 13.36 200.55 13.08 199.723 13.08H199.043C198.19 13.08 197.443 13.36 196.803 13.92C196.19 14.48 195.883 15.2933 195.883 16.36C195.883 17.4267 196.19 18.24 196.803 18.8C197.443 19.36 198.19 19.64 199.043 19.64H199.723ZM219.613 26.4C220.6 26.4 221.413 26.24 222.053 25.92C222.693 25.5733 223.013 25.0667 223.013 24.4C223.013 23.8133 222.8 23.36 222.373 23.04C221.973 22.6933 221.24 22.3867 220.173 22.12L217.893 21.52C216.133 21.0667 214.827 20.3067 213.973 19.24C213.147 18.1733 212.733 16.9067 212.733 15.44C212.733 13.7067 213.333 12.2533 214.533 11.08C215.733 9.90667 217.587 9.32 220.093 9.32C221.107 9.32 222.173 9.44 223.293 9.68C224.413 9.92 225.587 10.3067 226.813 10.84L225.493 14.76C224.373 14.2267 223.36 13.8533 222.453 13.64C221.547 13.4267 220.747 13.32 220.053 13.32C218.16 13.32 217.213 13.96 217.213 15.24C217.213 15.7467 217.373 16.1467 217.693 16.44C218.04 16.7333 218.667 17 219.573 17.24L221.853 17.84C223.8 18.3467 225.213 19.12 226.093 20.16C227 21.2 227.453 22.5067 227.453 24.08C227.453 25.9467 226.813 27.4667 225.533 28.64C224.28 29.8133 222.293 30.4 219.573 30.4C217.253 30.4 214.813 29.8667 212.253 28.8L213.493 25C214.747 25.5067 215.88 25.8667 216.893 26.08C217.907 26.2933 218.813 26.4 219.613 26.4Z" fill="#FFFEFE"/>
<path d="M13.04 30H12.04V31H13.04V30ZM13.04 27.24H14.04V24.8258L12.3329 26.5329L13.04 27.24ZM9.84 29.76L10.2763 30.6599L10.2872 30.6544L9.84 29.76ZM1.96 27.92L1.15066 28.5074L1.1569 28.5158L1.96 27.92ZM2.36 11.88L3.11842 12.5318L3.11842 12.5318L2.36 11.88ZM10.76 9.52L10.5639 10.5006L10.5712 10.502L10.76 9.52ZM12.8 10.08L12.4613 11.0209L13.8 11.5028V10.08H12.8ZM12.8 0.4V-0.6H11.8V0.4H12.8ZM17.4 0.4H18.4V-0.6H17.4V0.4ZM17.4 30V31H18.4V30H17.4ZM5.76 24.88L4.94449 25.4587L4.95061 25.4674L4.9569 25.4758L5.76 24.88ZM10.28 25.6L10.7272 26.4944L10.7408 26.4877L10.7541 26.4805L10.28 25.6ZM12.8 23.52L13.5165 24.2176L13.8 23.9264V23.52H12.8ZM12.8 14.24H13.8V13.5681L13.1779 13.3142L12.8 14.24ZM14.04 30V27.24H12.04V30H14.04ZM12.3329 26.5329C11.1363 27.7295 10.1587 28.4826 9.39279 28.8656L10.2872 30.6544C11.3347 30.1307 12.4904 29.2038 13.7471 27.9471L12.3329 26.5329ZM9.40373 28.8602C8.65708 29.2222 7.88597 29.4 7.08 29.4V31.4C8.19403 31.4 9.26292 31.1511 10.2763 30.6598L9.40373 28.8602ZM7.08 29.4C5.18693 29.4 3.78784 28.7053 2.7631 27.3242L1.1569 28.5158C2.58549 30.4413 4.59973 31.4 7.08 31.4V29.4ZM2.7693 27.3326C1.73863 25.9126 1.16 23.8289 1.16 20.96H-0.84C-0.84 24.0645 -0.218625 26.6208 1.1507 28.5074L2.7693 27.3326ZM1.16 20.96V18.8H-0.84V20.96H1.16ZM1.16 18.8C1.16 16.0612 1.84852 14.0095 3.11842 12.5318L1.60158 11.2282C-0.061855 13.1639 -0.84 15.7255 -0.84 18.8H1.16ZM3.11842 12.5318C4.35183 11.0965 6.16444 10.32 8.72 10.32V8.32C5.72889 8.32 3.30151 9.25014 1.60158 11.2282L3.11842 12.5318ZM8.72 10.32C9.34879 10.32 9.96306 10.3804 10.5639 10.5006L10.9561 8.53942C10.2236 8.39292 9.47788 8.32 8.72 8.32V10.32ZM10.5712 10.502C11.2134 10.6255 11.8433 10.7984 12.4613 11.0209L13.1387 9.13911C12.4234 8.8816 11.6933 8.68116 10.9488 8.53799L10.5712 10.502ZM13.8 10.08V0.4H11.8V10.08H13.8ZM12.8 1.4H17.4V-0.6H12.8V1.4ZM16.4 0.4V30H18.4V0.4H16.4ZM17.4 29H13.04V31H17.4V29ZM3.88 20.96C3.88 22.8145 4.17659 24.3767 4.94449 25.4587L6.57551 24.3013C6.17007 23.73 5.88 22.6789 5.88 20.96H3.88ZM4.9569 25.4758C5.77216 26.5747 6.93307 27.12 8.32 27.12V25.12C7.52027 25.12 6.97451 24.8387 6.5631 24.2842L4.9569 25.4758ZM8.32 27.12C9.12406 27.12 9.93069 26.8927 10.7272 26.4944L9.83279 24.7056C9.24264 25.0006 8.7426 25.12 8.32 25.12V27.12ZM10.7541 26.4805C11.5816 26.0349 12.5058 25.2557 13.5165 24.2176L12.0835 22.8224C11.1209 23.811 10.3651 24.4184 9.8059 24.7195L10.7541 26.4805ZM13.8 23.52V14.24H11.8V23.52H13.8ZM13.1779 13.3142C11.7846 12.7454 10.4546 12.44 9.2 12.44V14.44C10.1321 14.44 11.2021 14.6679 12.4221 15.1658L13.1779 13.3142ZM9.2 12.44C7.44252 12.44 5.97016 12.997 5.05863 14.3096L6.70137 15.4504C7.12318 14.843 7.86415 14.44 9.2 14.44V12.44ZM5.05863 14.3096C4.23654 15.4934 3.88 17.0242 3.88 18.8H5.88C5.88 17.2691 6.19013 16.1866 6.70137 15.4504L5.05863 14.3096ZM3.88 18.8V20.96H5.88V18.8H3.88ZM28.4581 5.88V6.88H29.4581V5.88H28.4581ZM23.6181 5.88H22.6181V6.88H23.6181V5.88ZM23.6181 1.12V0.119998H22.6181V1.12H23.6181ZM28.4581 1.12H29.4581V0.119998H28.4581V1.12ZM19.5781 38.92H18.5781V39.92H19.5781V38.92ZM19.5781 34.6V33.6H18.5781V34.6H19.5781ZM22.6581 33.64L23.3225 34.3874L23.3225 34.3874L22.6581 33.64ZM23.7381 9.72V8.72H22.7381V9.72H23.7381ZM28.3381 9.72H29.3381V8.72H28.3381V9.72ZM27.5781 34.44L26.6433 34.0848L26.6402 34.093L26.6372 34.1013L27.5781 34.44ZM24.9381 37.68L24.3956 36.8399L24.3875 36.8452L24.9381 37.68ZM28.4581 4.88H23.6181V6.88H28.4581V4.88ZM24.6181 5.88V1.12H22.6181V5.88H24.6181ZM23.6181 2.12H28.4581V0.119998H23.6181V2.12ZM27.4581 1.12V5.88H29.4581V1.12H27.4581ZM20.5781 38.92V34.6H18.5781V38.92H20.5781ZM19.5781 35.6C21.0621 35.6 22.3595 35.2434 23.3225 34.3874L21.9938 32.8926C21.5167 33.3166 20.7608 33.6 19.5781 33.6V35.6ZM23.3225 34.3874C24.3702 33.4561 24.7381 31.9251 24.7381 30.16H22.7381C22.7381 31.7549 22.3861 32.5439 21.9938 32.8926L23.3225 34.3874ZM24.7381 30.16V9.72H22.7381V30.16H24.7381ZM23.7381 10.72H28.3381V8.72H23.7381V10.72ZM27.3381 9.72V30.16H29.3381V9.72H27.3381ZM27.3381 30.16C27.3381 31.5667 27.1041 32.8722 26.6433 34.0848L28.5129 34.7952C29.0655 33.3411 29.3381 31.7933 29.3381 30.16H27.3381ZM26.6372 34.1013C26.2372 35.2124 25.5062 36.1227 24.3956 36.84L25.4807 38.52C26.93 37.584 27.959 36.3342 28.519 34.7787L26.6372 34.1013ZM24.3875 36.8452C23.3642 37.5202 21.8012 37.92 19.5781 37.92V39.92C21.995 39.92 24.0054 39.4931 25.4887 38.5148L24.3875 36.8452ZM46.7556 29.36L46.1822 30.1792L46.1884 30.1836L46.1948 30.1879L46.7556 29.36ZM44.9956 27.28L45.907 26.8684L45.3339 25.5995L44.3145 26.5478L44.9956 27.28ZM41.6756 29.64L41.2466 28.7367L41.2466 28.7367L41.6756 29.64ZM34.2756 28.68L33.4644 29.2648L33.4689 29.2709L33.4734 29.277L34.2756 28.68ZM33.6756 21.24L32.7811 20.7928L32.7758 20.8037L33.6756 21.24ZM35.8756 19.12L36.3228 20.0144L36.3228 20.0144L35.8756 19.12ZM42.1956 18.52L42.0542 19.5099L42.0716 19.5124L42.0891 19.5143L42.1956 18.52ZM44.4356 18.84L44.2598 19.8244L45.4356 20.0344V18.84H44.4356ZM43.5156 14.2L42.9446 15.0209L42.9568 15.0294L42.9694 15.0376L43.5156 14.2ZM38.3956 13.88L38.1787 12.9038L38.1728 12.9051L38.3956 13.88ZM35.3556 14.88L34.4079 15.1991L34.7496 16.2138L35.7386 15.8037L35.3556 14.88ZM34.0356 10.96L33.6595 10.0334L32.7876 10.3874L33.0879 11.2791L34.0356 10.96ZM45.9156 10.32L45.3856 11.168L45.395 11.1738L45.9156 10.32ZM48.1956 12.96L49.1272 12.5965L49.1272 12.5965L48.1956 12.96ZM49.1556 25.44L48.2874 25.9361L48.3088 25.9737L48.3334 26.0092L49.1556 25.44ZM50.9556 25.96H51.9556V24.96H50.9556V25.96ZM50.9556 30.2V31.2H51.9556V30.2H50.9556ZM37.9556 25.96L37.1556 26.56L37.165 26.5725L37.1748 26.5847L37.9556 25.96ZM44.4356 23.84L45.1268 24.5626L45.4356 24.2673V23.84H44.4356ZM44.4356 22.12H45.4356V21.2782L44.6062 21.1346L44.4356 22.12ZM38.1156 22.4L37.4303 21.6718L37.4192 21.6822L37.4085 21.6929L38.1156 22.4ZM50.0356 29.2C48.805 29.2 47.9275 28.946 47.3165 28.5321L46.1948 30.1879C47.2371 30.894 48.5462 31.2 50.0356 31.2V29.2ZM47.3291 28.5408C46.6646 28.0756 46.2007 27.5188 45.907 26.8684L44.0843 27.6916C44.5372 28.6946 45.2466 29.5244 46.1822 30.1792L47.3291 28.5408ZM44.3145 26.5478C43.2198 27.5662 42.1965 28.2855 41.2466 28.7367L42.1047 30.5433C43.2881 29.9812 44.4781 29.1272 45.6767 28.0122L44.3145 26.5478ZM41.2466 28.7367C40.3192 29.1772 39.3198 29.4 38.2356 29.4V31.4C39.6048 31.4 40.8987 31.1161 42.1047 30.5433L41.2466 28.7367ZM38.2356 29.4C36.6773 29.4 35.6956 28.9131 35.0779 28.083L33.4734 29.277C34.5623 30.7402 36.2207 31.4 38.2356 31.4V29.4ZM35.0868 28.0952C34.4102 27.1567 34.0356 25.9221 34.0356 24.32H32.0356C32.0356 26.2379 32.4877 27.91 33.4644 29.2648L35.0868 28.0952ZM34.0356 24.32C34.0356 23.268 34.2266 22.3958 34.5754 21.6763L32.7758 20.8037C32.2713 21.8442 32.0356 23.0254 32.0356 24.32H34.0356ZM34.5701 21.6872C34.9153 20.9967 35.4791 20.4363 36.3228 20.0144L35.4284 18.2256C34.2455 18.817 33.3426 19.67 32.7812 20.7928L34.5701 21.6872ZM36.3228 20.0144C37.1415 19.6051 38.3533 19.36 40.0356 19.36V17.36C38.198 17.36 36.6364 17.6216 35.4284 18.2256L36.3228 20.0144ZM40.0356 19.36C40.6777 19.36 41.3503 19.4094 42.0542 19.5099L42.337 17.5301C41.5476 17.4173 40.7802 17.36 40.0356 17.36V19.36ZM42.0891 19.5143C42.8123 19.5918 43.5359 19.6952 44.2598 19.8244L44.6114 17.8556C43.842 17.7182 43.0723 17.6082 42.3022 17.5257L42.0891 19.5143ZM45.4356 18.84V16.48H43.4356V18.84H45.4356ZM45.4356 16.48C45.4356 15.2108 45.0865 14.0306 44.0619 13.3624L42.9694 15.0376C43.1714 15.1694 43.4356 15.5092 43.4356 16.48H45.4356ZM44.0867 13.3791C43.2517 12.7982 42.2022 12.56 41.0356 12.56V14.56C41.949 14.56 42.5529 14.7484 42.9446 15.0209L44.0867 13.3791ZM41.0356 12.56C40.1483 12.56 39.1944 12.6781 38.1787 12.9038L38.6126 14.8562C39.5169 14.6552 40.323 14.56 41.0356 14.56V12.56ZM38.1728 12.9051C37.1737 13.1335 36.1062 13.4862 34.9726 13.9563L35.7386 15.8037C36.7917 15.3671 37.7509 15.0532 38.6185 14.8549L38.1728 12.9051ZM36.3033 14.5609L34.9833 10.6409L33.0879 11.2791L34.4079 15.1991L36.3033 14.5609ZM34.4118 11.8866C37.0228 10.8266 39.3327 10.32 41.3556 10.32V8.32C39.0052 8.32 36.4351 8.9067 33.6595 10.0334L34.4118 11.8866ZM41.3556 10.32C43.2392 10.32 44.5442 10.6421 45.3856 11.168L46.4456 9.472C45.1537 8.66456 43.4187 8.32 41.3556 8.32V10.32ZM45.395 11.1738C46.3194 11.7375 46.9244 12.4531 47.264 13.3235L49.1272 12.5965C48.6136 11.2803 47.6985 10.2359 46.4362 9.4662L45.395 11.1738ZM47.264 13.3235C47.6425 14.2933 47.8356 15.3425 47.8356 16.48H49.8356C49.8356 15.1108 49.6021 13.8133 49.1272 12.5965L47.264 13.3235ZM47.8356 16.48V24.28H49.8356V16.48H47.8356ZM47.8356 24.28C47.8356 24.867 47.9944 25.4234 48.2874 25.9361L50.0239 24.9439C49.8902 24.7099 49.8356 24.493 49.8356 24.28H47.8356ZM48.3334 26.0092C48.8493 26.7544 49.7169 26.96 50.5156 26.96V24.96C50.2619 24.96 50.1115 24.9261 50.0328 24.8959C49.965 24.87 49.9665 24.8544 49.9778 24.8708L48.3334 26.0092ZM50.5156 26.96H50.9556V24.96H50.5156V26.96ZM49.9556 25.96V30.2H51.9556V25.96H49.9556ZM50.9556 29.2H50.0356V31.2H50.9556V29.2ZM36.4756 24.24C36.4756 25.1015 36.6671 25.9086 37.1556 26.56L38.7556 25.36C38.6041 25.158 38.4756 24.8185 38.4756 24.24H36.4756ZM37.1748 26.5847C37.7226 27.2695 38.5052 27.56 39.3556 27.56V25.56C38.9794 25.56 38.8287 25.4505 38.7365 25.3353L37.1748 26.5847ZM39.3556 27.56C40.1386 27.56 40.9648 27.357 41.818 27.004L41.0533 25.156C40.3597 25.443 39.7993 25.56 39.3556 25.56V27.56ZM41.818 27.004C42.772 26.6092 43.8835 25.752 45.1268 24.5626L43.7444 23.1174C42.5344 24.2747 41.6459 24.9108 41.0533 25.156L41.818 27.004ZM45.4356 23.84V22.12H43.4356V23.84H45.4356ZM44.6062 21.1346C43.1663 20.8854 41.7492 20.76 40.3556 20.76V22.76C41.6287 22.76 42.9316 22.8746 44.2651 23.1054L44.6062 21.1346ZM40.3556 20.76C39.2208 20.76 38.1596 20.9853 37.4303 21.6718L38.801 23.1282C38.9783 22.9613 39.4104 22.76 40.3556 22.76V20.76ZM37.4085 21.6929C36.7393 22.3621 36.4756 23.2642 36.4756 24.24H38.4756C38.4756 23.6158 38.6386 23.2913 38.8227 23.1071L37.4085 21.6929ZM62.5891 14.08L62.2379 13.1437L62.2379 13.1437L62.5891 14.08ZM59.5491 15.96L58.9265 15.1774L58.5491 15.4777V15.96H59.5491ZM59.5491 30V31H60.5491V30H59.5491ZM54.9491 30H53.9491V31H54.9491V30ZM54.9491 9.72V8.72H53.9491V9.72H54.9491ZM59.3091 9.72H60.3091V8.72H59.3091V9.72ZM59.3091 12.44H58.3091V14.6394L59.9664 13.1936L59.3091 12.44ZM62.8691 10.08L63.263 10.9991L63.2721 10.9952L63.2812 10.9911L62.8691 10.08ZM70.7091 11.2L69.9314 11.8288L69.9381 11.8369L70.7091 11.2ZM72.2291 30V31H73.2291V30H72.2291ZM67.6291 30H66.6291V31H67.6291V30ZM64.8691 12.6C64.0473 12.6 63.1651 12.796 62.2379 13.1437L62.9402 15.0163C63.7197 14.724 64.3574 14.6 64.8691 14.6V12.6ZM62.2379 13.1437C61.244 13.5164 60.1361 14.2152 58.9265 15.1774L60.1716 16.7426C61.3087 15.8381 62.2275 15.2836 62.9402 15.0163L62.2379 13.1437ZM58.5491 15.96V30H60.5491V15.96H58.5491ZM59.5491 29H54.9491V31H59.5491V29ZM55.9491 30V9.72H53.9491V30H55.9491ZM54.9491 10.72H59.3091V8.72H54.9491V10.72ZM58.3091 9.72V12.44H60.3091V9.72H58.3091ZM59.9664 13.1936C61.1677 12.1456 62.2667 11.4261 63.263 10.9991L62.4751 9.16085C61.2314 9.69388 59.957 10.5477 58.6517 11.6864L59.9664 13.1936ZM63.2812 10.9911C64.2812 10.5387 65.2746 10.32 66.2691 10.32V8.32C64.9702 8.32 63.6969 8.60793 62.4569 9.16889L63.2812 10.9911ZM66.2691 10.32C67.9832 10.32 69.1477 10.8594 69.9314 11.8287L71.4867 10.5713C70.2438 9.03397 68.4483 8.32 66.2691 8.32V10.32ZM69.9381 11.8369C70.7532 12.8235 71.2291 14.299 71.2291 16.4H73.2291C73.2291 14.021 72.6916 12.0298 71.48 10.5631L69.9381 11.8369ZM71.2291 16.4V30H73.2291V16.4H71.2291ZM72.2291 29H67.6291V31H72.2291V29ZM68.6291 30V16.96H66.6291V30H68.6291ZM68.6291 16.96C68.6291 15.7284 68.3802 14.6189 67.7118 13.8053C67.0125 12.9539 66.0008 12.6 64.8691 12.6V14.6C65.5774 14.6 65.9456 14.8061 66.1663 15.0747C66.418 15.3811 66.6291 15.9516 66.6291 16.96H68.6291ZM92.5884 37.08L92.0133 36.262L92.006 36.2671L91.9987 36.2724L92.5884 37.08ZM81.0684 38.44L80.8691 39.4199L80.8691 39.4199L81.0684 38.44ZM76.7084 36.84L75.7683 36.4991L75.4788 37.2975L76.2198 37.7125L76.7084 36.84ZM78.0284 33.2L78.4757 32.3056L77.4712 31.8033L77.0883 32.8591L78.0284 33.2ZM81.8284 34.56L82.0563 33.5863L82.0465 33.584L82.0365 33.5819L81.8284 34.56ZM80.6684 30.16L81.139 29.2776L81.139 29.2776L80.6684 30.16ZM78.9084 28.52L78.028 28.9941L78.0319 29.0014L78.0359 29.0086L78.9084 28.52ZM78.8284 24.2L77.934 23.7528L77.9304 23.76L77.9269 23.7673L78.8284 24.2ZM80.2284 22.28L80.9355 22.9871L81.8336 22.089L80.7499 21.4267L80.2284 22.28ZM77.9084 19.92L77.0388 20.4136L77.0437 20.4224L77.0489 20.4311L77.9084 19.92ZM78.0684 12.44L78.9103 12.9797L78.9103 12.9797L78.0684 12.44ZM80.7884 10.12L81.1926 11.0347L81.2022 11.0304L80.7884 10.12ZM86.9084 9.44L86.7525 10.4278L86.778 10.4318L86.8038 10.4345L86.9084 9.44ZM88.3484 9.72L88.0663 10.6794L88.2044 10.72H88.3484V9.72ZM95.5884 9.72H96.5884V8.72H95.5884V9.72ZM95.5884 13.64L95.4304 14.6274L96.5884 14.8127V13.64H95.5884ZM91.5884 13L91.7464 12.0126L88.8588 11.5505L90.8589 13.6839L91.5884 13ZM92.5084 14.6L91.5598 14.9162L91.5679 14.9405L91.5772 14.9644L92.5084 14.6ZM91.8284 20.4L91.0102 19.825L91.0071 19.8296L91.8284 20.4ZM89.1084 22.64L89.5206 23.5512L89.5302 23.5467L89.1084 22.64ZM83.1484 23.28L83.3128 22.2936L82.7778 22.2044L82.4113 22.6043L83.1484 23.28ZM82.5084 24.28L83.4315 24.6646L83.4368 24.6519L83.4418 24.639L82.5084 24.28ZM93.4284 28.04L92.7776 28.7993L92.7873 28.8075L92.7972 28.8156L93.4284 28.04ZM87.5084 18.8L86.8499 18.0474L86.842 18.0544L86.8342 18.0615L87.5084 18.8ZM87.5084 13.92L86.8342 14.6585L86.842 14.6656L86.8499 14.6726L87.5084 13.92ZM82.4284 13.92L81.7699 13.1674L81.762 13.1744L81.7542 13.1815L82.4284 13.92ZM82.4284 18.8L81.7542 19.5385L81.762 19.5456L81.7699 19.5526L82.4284 18.8ZM94.1484 32.04C94.1484 33.8881 93.4426 35.257 92.0133 36.262L93.1636 37.898C95.1476 36.503 96.1484 34.5119 96.1484 32.04H94.1484ZM91.9987 36.2724C90.5513 37.3292 88.4411 37.92 85.5484 37.92V39.92C88.6824 39.92 91.2655 39.2841 93.1781 37.8876L91.9987 36.2724ZM85.5484 37.92C84.2104 37.92 82.7842 37.7685 81.2677 37.4601L80.8691 39.4199C82.4994 39.7515 84.0598 39.92 85.5484 39.92V37.92ZM81.2677 37.4601C79.7907 37.1596 78.4356 36.6611 77.197 35.9675L76.2198 37.7125C77.6479 38.5122 79.1995 39.0804 80.8691 39.4199L81.2677 37.4601ZM77.6485 37.1809L78.9685 33.5409L77.0883 32.8591L75.7683 36.4991L77.6485 37.1809ZM77.5812 34.0944C78.9284 34.768 80.2751 35.2519 81.6203 35.5381L82.0365 33.5819C80.8751 33.3348 79.6885 32.912 78.4757 32.3056L77.5812 34.0944ZM81.6006 35.5337C82.9232 35.8432 84.2264 36 85.5084 36V34C84.3905 34 83.2403 33.8634 82.0563 33.5863L81.6006 35.5337ZM85.5084 36C87.2509 36 88.7183 35.7695 89.8064 35.209L88.8905 33.431C88.2185 33.7772 87.126 34 85.5084 34V36ZM89.8064 35.209C90.8929 34.6493 91.6684 33.7647 91.6684 32.52H89.6684C89.6684 32.7686 89.564 33.0841 88.8905 33.431L89.8064 35.209ZM91.6684 32.52C91.6684 31.7435 91.4301 30.9942 90.803 30.4655C90.2086 29.9643 89.4249 29.8 88.6284 29.8V31.8C89.192 31.8 89.4283 31.9224 89.5138 31.9945C89.5667 32.0391 89.6684 32.1498 89.6684 32.52H91.6684ZM88.6284 29.8H83.8284V31.8H88.6284V29.8ZM83.8284 29.8C82.6183 29.8 81.7444 29.6005 81.139 29.2776L80.1978 31.0424C81.1925 31.5728 82.4253 31.8 83.8284 31.8V29.8ZM81.139 29.2776C80.476 28.924 80.0445 28.502 79.7809 28.0314L78.0359 29.0086C78.519 29.8713 79.2609 30.5427 80.1978 31.0424L81.139 29.2776ZM79.7889 28.0459C79.4896 27.4901 79.3484 26.9321 79.3484 26.36H77.3484C77.3484 27.2813 77.5806 28.1633 78.028 28.9941L79.7889 28.0459ZM79.3484 26.36C79.3484 25.7294 79.4778 25.1581 79.73 24.6327L77.9269 23.7673C77.5391 24.5752 77.3484 25.4439 77.3484 26.36H79.3484ZM79.7229 24.6472C80.0182 24.0566 80.4195 23.5031 80.9355 22.9871L79.5213 21.5729C78.864 22.2302 78.332 22.9568 77.934 23.7528L79.7229 24.6472ZM80.7499 21.4267C79.9317 20.9267 79.2732 20.2587 78.768 19.4089L77.0489 20.4311C77.717 21.5547 78.6052 22.46 79.707 23.1333L80.7499 21.4267ZM78.7781 19.4264C78.3206 18.6203 78.0684 17.6118 78.0684 16.36H76.0684C76.0684 17.8815 76.3763 19.2464 77.0388 20.4136L78.7781 19.4264ZM78.0684 16.36C78.0684 14.9261 78.3717 13.8199 78.9103 12.9797L77.2266 11.9003C76.4318 13.1401 76.0684 14.6473 76.0684 16.36H78.0684ZM78.9103 12.9797C79.4694 12.1075 80.2227 11.4633 81.1926 11.0347L80.3843 9.20531C79.0609 9.79007 78.0008 10.6925 77.2266 11.9003L78.9103 12.9797ZM81.2022 11.0304C82.2335 10.5616 83.3839 10.32 84.6684 10.32V8.32C83.1263 8.32 81.69 8.61173 80.3746 9.20963L81.2022 11.0304ZM84.6684 10.32H85.3484V8.32H84.6684V10.32ZM85.3484 10.32C85.8316 10.32 86.2994 10.3562 86.7525 10.4278L87.0644 8.45224C86.5041 8.36378 85.9319 8.32 85.3484 8.32V10.32ZM86.8038 10.4345C87.255 10.482 87.6752 10.5643 88.0663 10.6794L88.6306 8.76063C88.115 8.60898 87.5753 8.50467 87.0131 8.44549L86.8038 10.4345ZM88.3484 10.72H95.5884V8.72H88.3484V10.72ZM94.5884 9.72V13.64H96.5884V9.72H94.5884ZM95.7464 12.6526L91.7464 12.0126L91.4304 13.9874L95.4304 14.6274L95.7464 12.6526ZM90.8589 13.6839C91.1461 13.9903 91.3851 14.3922 91.5598 14.9162L93.4571 14.2838C93.2051 13.5278 92.8308 12.863 92.318 12.3161L90.8589 13.6839ZM91.5772 14.9644C91.7582 15.4268 91.8684 16.0543 91.8684 16.88H93.8684C93.8684 15.8924 93.7387 14.9998 93.4397 14.2356L91.5772 14.9644ZM91.8684 16.88C91.8684 18.0616 91.5705 19.0278 91.0102 19.8251L92.6466 20.9749C93.4731 19.7988 93.8684 18.4184 93.8684 16.88H91.8684ZM91.0071 19.8296C90.4497 20.6322 89.6863 21.2683 88.6867 21.7333L89.5302 23.5467C90.8239 22.945 91.8738 22.0878 92.6498 20.9704L91.0071 19.8296ZM88.6963 21.7289C87.7214 22.1699 86.6112 22.4 85.3484 22.4V24.4C86.859 24.4 88.2555 24.1234 89.5206 23.5511L88.6963 21.7289ZM85.3484 22.4H84.6684V24.4H85.3484V22.4ZM84.6684 22.4C84.185 22.4 83.7336 22.3637 83.3128 22.2936L82.984 24.2664C83.5233 24.3563 84.0852 24.4 84.6684 24.4V22.4ZM82.4113 22.6043C82.0473 23.0013 81.7603 23.4395 81.5751 23.921L83.4418 24.639C83.5232 24.4272 83.6629 24.1987 83.8856 23.9557L82.4113 22.6043ZM81.5854 23.8954C81.4103 24.3155 81.3084 24.7529 81.3084 25.2H83.3084C83.3084 25.0604 83.3399 24.8845 83.4315 24.6646L81.5854 23.8954ZM81.3084 25.2C81.3084 25.8973 81.5454 26.5734 82.1445 27.0394C82.6959 27.4682 83.4064 27.6 84.1084 27.6V25.6C83.6105 25.6 83.421 25.4985 83.3724 25.4606C83.3562 25.4481 83.3486 25.4384 83.3401 25.4186C83.329 25.3928 83.3084 25.3276 83.3084 25.2H81.3084ZM84.1084 27.6H88.9884V25.6H84.1084V27.6ZM88.9884 27.6C90.6507 27.6 91.8804 28.0302 92.7776 28.7993L94.0792 27.2807C92.7365 26.1298 91.0061 25.6 88.9884 25.6V27.6ZM92.7972 28.8156C93.6691 29.5253 94.1484 30.5496 94.1484 32.04H96.1484C96.1484 30.0637 95.4811 28.4214 94.0597 27.2644L92.7972 28.8156ZM85.3484 20.64C86.4259 20.64 87.3861 20.2659 88.1827 19.5385L86.8342 18.0615C86.4041 18.4541 85.9243 18.64 85.3484 18.64V20.64ZM88.1669 19.5526C89.0771 18.7562 89.4684 17.636 89.4684 16.36H87.4684C87.4684 17.2174 87.2198 17.7238 86.8499 18.0474L88.1669 19.5526ZM89.4684 16.36C89.4684 15.084 89.0771 13.9638 88.1669 13.1674L86.8499 14.6726C87.2198 14.9962 87.4684 15.5026 87.4684 16.36H89.4684ZM88.1827 13.1815C87.3861 12.4541 86.4259 12.08 85.3484 12.08V14.08C85.9243 14.08 86.4041 14.2659 86.8342 14.6585L88.1827 13.1815ZM85.3484 12.08H84.6684V14.08H85.3484V12.08ZM84.6684 12.08C83.5738 12.08 82.5929 12.4473 81.7699 13.1674L83.0869 14.6726C83.544 14.2727 84.0564 14.08 84.6684 14.08V12.08ZM81.7542 13.1815C80.878 13.9815 80.5084 15.0972 80.5084 16.36H82.5084C82.5084 15.4895 82.7522 14.9785 83.1027 14.6585L81.7542 13.1815ZM80.5084 16.36C80.5084 17.6228 80.878 18.7385 81.7542 19.5385L83.1027 18.0615C82.7522 17.7415 82.5084 17.2305 82.5084 16.36H80.5084ZM81.7699 19.5526C82.5929 20.2727 83.5738 20.64 84.6684 20.64V18.64C84.0564 18.64 83.544 18.4473 83.0869 18.0474L81.7699 19.5526ZM84.6684 20.64H85.3484V18.64H84.6684V20.64ZM113.838 27.84L114.579 28.5115L114.579 28.5115L113.838 27.84ZM100.718 27.84L99.9775 28.5115L99.9775 28.5115L100.718 27.84ZM100.678 11.88L99.9375 11.2085L99.9369 11.2091L100.678 11.88ZM113.838 11.88L113.092 12.5451L113.097 12.5512L113.103 12.5573L113.838 11.88ZM110.358 14.84L109.567 15.4509L109.575 15.4619L110.358 14.84ZM104.198 14.84L104.982 15.4619L104.99 15.4508L104.198 14.84ZM104.198 24.88L103.407 25.4908L103.407 25.4908L104.198 24.88ZM110.358 24.88L109.567 24.2692L109.567 24.2692L110.358 24.88ZM115.158 18.64V21.04H117.158V18.64H115.158ZM115.158 21.04C115.158 23.6775 114.442 25.6853 113.097 27.1685L114.579 28.5115C116.329 26.5814 117.158 24.0558 117.158 21.04H115.158ZM113.097 27.1685C111.782 28.6196 109.892 29.4 107.278 29.4V31.4C110.318 31.4 112.801 30.4737 114.579 28.5115L113.097 27.1685ZM107.278 29.4C104.665 29.4 102.775 28.6196 101.459 27.1685L99.9775 28.5115C101.756 30.4737 104.239 31.4 107.278 31.4V29.4ZM101.459 27.1685C100.115 25.6853 99.3984 23.6775 99.3984 21.04H97.3984C97.3984 24.0558 98.2283 26.5814 99.9775 28.5115L101.459 27.1685ZM99.3984 21.04V18.64H97.3984V21.04H99.3984ZM99.3984 18.64C99.3984 15.9973 100.105 14.0046 101.42 12.5509L99.9369 11.2091C98.2121 13.1154 97.3984 15.6293 97.3984 18.64H99.3984ZM101.419 12.5515C102.733 11.1024 104.635 10.32 107.278 10.32V8.32C104.215 8.32 101.717 9.24431 99.9375 11.2085L101.419 12.5515ZM107.278 10.32C109.923 10.32 111.807 11.1025 113.092 12.5451L114.585 11.2149C112.83 9.24416 110.341 8.32 107.278 8.32V10.32ZM113.103 12.5573C114.441 14.0114 115.158 16.0018 115.158 18.64H117.158C117.158 15.6249 116.329 13.1086 114.574 11.2027L113.103 12.5573ZM112.438 18.64C112.438 16.8772 112.049 15.361 111.142 14.2181L109.575 15.4619C110.108 16.1323 110.438 17.1494 110.438 18.64H112.438ZM111.15 14.2292C110.214 13.016 108.875 12.44 107.278 12.44V14.44C108.348 14.44 109.063 14.7974 109.567 15.4508L111.15 14.2292ZM107.278 12.44C105.681 12.44 104.343 13.016 103.407 14.2292L104.99 15.4508C105.494 14.7974 106.209 14.44 107.278 14.44V12.44ZM103.415 14.2181C102.508 15.361 102.118 16.8773 102.118 18.64H104.118C104.118 17.1494 104.449 16.1323 104.982 15.4619L103.415 14.2181ZM102.118 18.64V21.04H104.118V18.64H102.118ZM102.118 21.04C102.118 22.805 102.509 24.3267 103.407 25.4908L104.99 24.2692C104.448 23.5666 104.118 22.5283 104.118 21.04H102.118ZM103.407 25.4908C104.343 26.704 105.681 27.28 107.278 27.28V25.28C106.209 25.28 105.494 24.9226 104.99 24.2692L103.407 25.4908ZM107.278 27.28C108.875 27.28 110.214 26.704 111.15 25.4908L109.567 24.2692C109.063 24.9226 108.348 25.28 107.278 25.28V27.28ZM111.15 25.4908C112.048 24.3267 112.438 22.805 112.438 21.04H110.438C110.438 22.5283 110.109 23.5666 109.567 24.2692L111.15 25.4908ZM112.438 21.04V18.64H110.438V21.04H112.438ZM120.156 19.4H119.156V20.4H120.156V19.4ZM120.156 15.4V14.4H119.156V15.4H120.156ZM132.316 15.4H133.316V14.4H132.316V15.4ZM132.316 19.4V20.4H133.316V19.4H132.316ZM121.156 19.4V15.4H119.156V19.4H121.156ZM120.156 16.4H132.316V14.4H120.156V16.4ZM131.316 15.4V19.4H133.316V15.4H131.316ZM132.316 18.4H120.156V20.4H132.316V18.4ZM152.408 27.84L151.644 27.1951L151.644 27.1951L152.408 27.84ZM137.328 28H136.328V28.5962L136.853 28.8797L137.328 28ZM137.328 0.4V-0.6H136.328V0.4H137.328ZM141.928 0.4H142.928V-0.6H141.928V0.4ZM141.928 12.4H140.928V14.8142L142.635 13.1071L141.928 12.4ZM145.088 9.96L145.502 10.8704L145.513 10.8652L145.524 10.8598L145.088 9.96ZM152.768 11.8L151.953 12.3788L151.959 12.3874L152.768 11.8ZM144.528 14.16L144.068 13.2722L144.061 13.2758L144.054 13.2795L144.528 14.16ZM141.928 16.36L141.204 15.6708L140.928 15.9604V16.36H141.928ZM141.928 25.44H140.928V26.1124L141.551 26.3661L141.928 25.44ZM143.888 26.08L143.666 27.0552L143.676 27.0572L143.888 26.08ZM148.888 24.84L149.72 25.3947L149.72 25.3947L148.888 24.84ZM148.968 14.84L148.14 15.4008L148.146 15.4099L148.153 15.4187L148.968 14.84ZM153.568 20.92C153.568 23.663 152.891 25.7174 151.644 27.1951L153.172 28.4849C154.806 26.5493 155.568 23.9903 155.568 20.92H153.568ZM151.644 27.1951C150.439 28.6234 148.644 29.4 146.088 29.4V31.4C149.078 31.4 151.497 30.47 153.172 28.4849L151.644 27.1951ZM146.088 29.4C143.4 29.4 140.642 28.6547 137.804 27.1203L136.853 28.8797C139.934 30.5453 143.016 31.4 146.088 31.4V29.4ZM138.328 28V0.4H136.328V28H138.328ZM137.328 1.4H141.928V-0.6H137.328V1.4ZM140.928 0.4V12.4H142.928V0.4H140.928ZM142.635 13.1071C143.833 11.9089 144.786 11.196 145.502 10.8704L144.674 9.04963C143.631 9.52402 142.476 10.4378 141.221 11.6929L142.635 13.1071ZM145.524 10.8598C146.275 10.4958 147.033 10.32 147.808 10.32V8.32C146.716 8.32 145.661 8.57082 144.652 9.06018L145.524 10.8598ZM147.808 10.32C149.637 10.32 150.978 11.0056 151.953 12.3787L153.584 11.2213C152.211 9.28778 150.245 8.32 147.808 8.32V10.32ZM151.959 12.3874C152.99 13.8074 153.568 15.8911 153.568 18.76H155.568C155.568 15.6555 154.947 13.0992 153.577 11.2126L151.959 12.3874ZM153.568 18.76V20.92H155.568V18.76H153.568ZM146.568 12.6C145.731 12.6 144.893 12.8444 144.068 13.2722L144.988 15.0478C145.603 14.729 146.125 14.6 146.568 14.6V12.6ZM144.054 13.2795C143.217 13.73 142.263 14.5575 141.204 15.6708L142.653 17.0492C143.674 15.9758 144.452 15.3367 145.002 15.0405L144.054 13.2795ZM140.928 16.36V25.44H142.928V16.36H140.928ZM141.551 26.3661C142.308 26.6744 143.014 26.9068 143.667 27.0551L144.11 25.1049C143.589 24.9865 142.989 24.7923 142.305 24.5139L141.551 26.3661ZM143.676 27.0572C144.354 27.2046 145.025 27.28 145.688 27.28V25.28C145.178 25.28 144.649 25.222 144.101 25.1028L143.676 27.0572ZM145.688 27.28C147.406 27.28 148.841 26.7136 149.72 25.3947L148.056 24.2853C147.655 24.8864 146.957 25.28 145.688 25.28V27.28ZM149.72 25.3947C150.508 24.2136 150.848 22.6891 150.848 20.92H148.848C148.848 22.4575 148.549 23.5464 148.056 24.2853L149.72 25.3947ZM150.848 20.92V18.76H148.848V20.92H150.848ZM150.848 18.76C150.848 16.9055 150.552 15.3433 149.784 14.2613L148.153 15.4187C148.558 15.99 148.848 17.0411 148.848 18.76H150.848ZM149.796 14.2792C149.041 13.1645 147.923 12.6 146.568 12.6V14.6C147.293 14.6 147.775 14.8622 148.14 15.4008L149.796 14.2792ZM159.751 0.4V-0.6H158.751V0.4H159.751ZM164.351 0.4H165.351V-0.6H164.351V0.4ZM164.631 25.44L163.737 25.8872L163.756 25.9266L163.779 25.9641L164.631 25.44ZM166.471 25.96H167.471V24.96H166.471V25.96ZM166.471 30.2V31.2H167.471V30.2H166.471ZM161.871 29.32L162.462 28.5136L162.462 28.5136L161.871 29.32ZM160.191 27.08L159.239 27.3878L159.244 27.4004L159.248 27.4128L160.191 27.08ZM160.751 24.28V0.4H158.751V24.28H160.751ZM159.751 1.4H164.351V-0.6H159.751V1.4ZM163.351 0.4V24.28H165.351V0.4H163.351ZM163.351 24.28C163.351 24.8421 163.484 25.3812 163.737 25.8872L165.525 24.9928C165.405 24.7521 165.351 24.5179 165.351 24.28H163.351ZM163.779 25.9641C164.248 26.7254 165.064 26.96 165.831 26.96V24.96C165.63 24.96 165.528 24.9294 165.489 24.9124C165.463 24.9012 165.474 24.902 165.483 24.9159L163.779 25.9641ZM165.831 26.96H166.471V24.96H165.831V26.96ZM165.471 25.96V30.2H167.471V25.96H165.471ZM166.471 29.2H165.351V31.2H166.471V29.2ZM165.351 29.2C163.937 29.2 163.021 28.9235 162.462 28.5136L161.28 30.1264C162.321 30.8898 163.725 31.2 165.351 31.2V29.2ZM162.462 28.5136C161.819 28.0418 161.385 27.4579 161.134 26.7472L159.248 27.4128C159.637 28.5154 160.323 29.4248 161.28 30.1264L162.462 28.5136ZM161.142 26.7722C160.881 25.9657 160.751 25.1363 160.751 24.28H158.751C158.751 25.3437 158.914 26.381 159.239 27.3878L161.142 26.7722ZM185.206 27.84L185.947 28.5115L185.947 28.5115L185.206 27.84ZM172.086 27.84L171.345 28.5115L171.345 28.5115L172.086 27.84ZM172.046 11.88L171.305 11.2085L171.304 11.2091L172.046 11.88ZM185.206 11.88L184.459 12.5451L184.464 12.5512L184.47 12.5573L185.206 11.88ZM181.726 14.84L180.934 15.4509L180.943 15.4619L181.726 14.84ZM175.566 14.84L176.349 15.4619L176.357 15.4508L175.566 14.84ZM175.566 24.88L174.774 25.4908L174.774 25.4908L175.566 24.88ZM181.726 24.88L180.934 24.2692L180.934 24.2692L181.726 24.88ZM186.526 18.64V21.04H188.526V18.64H186.526ZM186.526 21.04C186.526 23.6775 185.809 25.6853 184.465 27.1685L185.947 28.5115C187.696 26.5814 188.526 24.0558 188.526 21.04H186.526ZM184.465 27.1685C183.15 28.6196 181.259 29.4 178.646 29.4V31.4C181.685 31.4 184.168 30.4737 185.947 28.5115L184.465 27.1685ZM178.646 29.4C176.032 29.4 174.142 28.6196 172.827 27.1685L171.345 28.5115C173.123 30.4737 175.606 31.4 178.646 31.4V29.4ZM172.827 27.1685C171.482 25.6853 170.766 23.6775 170.766 21.04H168.766C168.766 24.0558 169.595 26.5814 171.345 28.5115L172.827 27.1685ZM170.766 21.04V18.64H168.766V21.04H170.766ZM170.766 18.64C170.766 15.9973 171.472 14.0046 172.787 12.5509L171.304 11.2091C169.579 13.1154 168.766 15.6293 168.766 18.64H170.766ZM172.787 12.5515C174.1 11.1024 176.002 10.32 178.646 10.32V8.32C175.583 8.32 173.085 9.24431 171.305 11.2085L172.787 12.5515ZM178.646 10.32C181.29 10.32 183.174 11.1025 184.459 12.5451L185.952 11.2149C184.197 9.24416 181.708 8.32 178.646 8.32V10.32ZM184.47 12.5573C185.809 14.0114 186.526 16.0018 186.526 18.64H188.526C188.526 15.6249 187.696 13.1086 185.941 11.2027L184.47 12.5573ZM183.806 18.64C183.806 16.8772 183.416 15.361 182.509 14.2181L180.943 15.4619C181.475 16.1323 181.806 17.1494 181.806 18.64H183.806ZM182.517 14.2292C181.581 13.016 180.243 12.44 178.646 12.44V14.44C179.715 14.44 180.43 14.7974 180.934 15.4508L182.517 14.2292ZM178.646 12.44C177.049 12.44 175.71 13.016 174.774 14.2292L176.357 15.4508C176.861 14.7974 177.576 14.44 178.646 14.44V12.44ZM174.783 14.2181C173.875 15.361 173.486 16.8773 173.486 18.64H175.486C175.486 17.1494 175.816 16.1323 176.349 15.4619L174.783 14.2181ZM173.486 18.64V21.04H175.486V18.64H173.486ZM173.486 21.04C173.486 22.805 173.876 24.3267 174.774 25.4908L176.357 24.2692C175.815 23.5666 175.486 22.5283 175.486 21.04H173.486ZM174.774 25.4908C175.71 26.704 177.049 27.28 178.646 27.28V25.28C177.576 25.28 176.861 24.9226 176.357 24.2692L174.774 25.4908ZM178.646 27.28C180.243 27.28 181.581 26.704 182.517 25.4908L180.934 24.2692C180.43 24.9226 179.715 25.28 178.646 25.28V27.28ZM182.517 25.4908C183.415 24.3267 183.806 22.805 183.806 21.04H181.806C181.806 22.5283 181.476 23.5666 180.934 24.2692L182.517 25.4908ZM183.806 21.04V18.64H181.806V21.04H183.806ZM206.963 37.08L206.388 36.262L206.381 36.2671L206.374 36.2724L206.963 37.08ZM195.443 38.44L195.244 39.4199L195.244 39.4199L195.443 38.44ZM191.083 36.84L190.143 36.4991L189.854 37.2975L190.595 37.7125L191.083 36.84ZM192.403 33.2L192.851 32.3056L191.846 31.8033L191.463 32.8591L192.403 33.2ZM196.203 34.56L196.431 33.5863L196.421 33.584L196.412 33.5819L196.203 34.56ZM195.043 30.16L195.514 29.2776L195.514 29.2776L195.043 30.16ZM193.283 28.52L192.403 28.9941L192.407 29.0014L192.411 29.0086L193.283 28.52ZM193.203 24.2L192.309 23.7528L192.305 23.76L192.302 23.7673L193.203 24.2ZM194.603 22.28L195.311 22.9871L196.209 22.089L195.125 21.4267L194.603 22.28ZM192.283 19.92L191.414 20.4136L191.419 20.4224L191.424 20.4311L192.283 19.92ZM192.443 12.44L193.285 12.9797L193.285 12.9797L192.443 12.44ZM195.163 10.12L195.568 11.0347L195.577 11.0304L195.163 10.12ZM201.283 9.44L201.127 10.4278L201.153 10.4318L201.179 10.4345L201.283 9.44ZM202.723 9.72L202.441 10.6794L202.579 10.72H202.723V9.72ZM209.963 9.72H210.963V8.72H209.963V9.72ZM209.963 13.64L209.805 14.6274L210.963 14.8127V13.64H209.963ZM205.963 13L206.121 12.0126L203.234 11.5505L205.234 13.6839L205.963 13ZM206.883 14.6L205.935 14.9162L205.943 14.9405L205.952 14.9644L206.883 14.6ZM206.203 20.4L205.385 19.825L205.382 19.8296L206.203 20.4ZM203.483 22.64L203.896 23.5512L203.905 23.5467L203.483 22.64ZM197.523 23.28L197.688 22.2936L197.153 22.2044L196.786 22.6043L197.523 23.28ZM196.883 24.28L197.807 24.6646L197.812 24.6519L197.817 24.639L196.883 24.28ZM207.803 28.04L207.153 28.7993L207.162 28.8075L207.172 28.8156L207.803 28.04ZM201.883 18.8L201.225 18.0474L201.217 18.0544L201.209 18.0615L201.883 18.8ZM201.883 13.92L201.209 14.6585L201.217 14.6656L201.225 14.6726L201.883 13.92ZM196.803 13.92L196.145 13.1674L196.137 13.1744L196.129 13.1815L196.803 13.92ZM196.803 18.8L196.129 19.5385L196.137 19.5456L196.145 19.5526L196.803 18.8ZM208.523 32.04C208.523 33.8881 207.818 35.257 206.388 36.262L207.539 37.898C209.523 36.503 210.523 34.5119 210.523 32.04H208.523ZM206.374 36.2724C204.926 37.3292 202.816 37.92 199.923 37.92V39.92C203.057 39.92 205.641 39.2841 207.553 37.8876L206.374 36.2724ZM199.923 37.92C198.585 37.92 197.159 37.7685 195.643 37.4601L195.244 39.4199C196.874 39.7515 198.435 39.92 199.923 39.92V37.92ZM195.643 37.4601C194.166 37.1596 192.811 36.6611 191.572 35.9675L190.595 37.7125C192.023 38.5122 193.575 39.0804 195.244 39.4199L195.643 37.4601ZM192.024 37.1809L193.344 33.5409L191.463 32.8591L190.143 36.4991L192.024 37.1809ZM191.956 34.0944C193.303 34.768 194.65 35.2519 195.995 35.5381L196.412 33.5819C195.25 33.3348 194.064 32.912 192.851 32.3056L191.956 34.0944ZM195.976 35.5337C197.298 35.8432 198.601 36 199.883 36V34C198.765 34 197.615 33.8634 196.431 33.5863L195.976 35.5337ZM199.883 36C201.626 36 203.093 35.7695 204.181 35.209L203.265 33.431C202.594 33.7772 201.501 34 199.883 34V36ZM204.181 35.209C205.268 34.6493 206.043 33.7647 206.043 32.52H204.043C204.043 32.7686 203.939 33.0841 203.265 33.431L204.181 35.209ZM206.043 32.52C206.043 31.7435 205.805 30.9942 205.178 30.4655C204.584 29.9643 203.8 29.8 203.003 29.8V31.8C203.567 31.8 203.803 31.9224 203.889 31.9945C203.942 32.0391 204.043 32.1498 204.043 32.52H206.043ZM203.003 29.8H198.203V31.8H203.003V29.8ZM198.203 29.8C196.993 29.8 196.119 29.6005 195.514 29.2776L194.573 31.0424C195.567 31.5728 196.8 31.8 198.203 31.8V29.8ZM195.514 29.2776C194.851 28.924 194.419 28.502 194.156 28.0314L192.411 29.0086C192.894 29.8713 193.636 30.5427 194.573 31.0424L195.514 29.2776ZM194.164 28.0459C193.865 27.4901 193.723 26.9321 193.723 26.36H191.723C191.723 27.2813 191.956 28.1633 192.403 28.9941L194.164 28.0459ZM193.723 26.36C193.723 25.7294 193.853 25.1581 194.105 24.6327L192.302 23.7673C191.914 24.5752 191.723 25.4439 191.723 26.36H193.723ZM194.098 24.6472C194.393 24.0566 194.795 23.5031 195.311 22.9871L193.896 21.5729C193.239 22.2302 192.707 22.9568 192.309 23.7528L194.098 24.6472ZM195.125 21.4267C194.307 20.9267 193.648 20.2587 193.143 19.4089L191.424 20.4311C192.092 21.5547 192.98 22.46 194.082 23.1333L195.125 21.4267ZM193.153 19.4264C192.696 18.6203 192.443 17.6118 192.443 16.36H190.443C190.443 17.8815 190.751 19.2464 191.414 20.4136L193.153 19.4264ZM192.443 16.36C192.443 14.9261 192.747 13.8199 193.285 12.9797L191.602 11.9003C190.807 13.1401 190.443 14.6473 190.443 16.36H192.443ZM193.285 12.9797C193.844 12.1075 194.598 11.4633 195.568 11.0347L194.759 9.20531C193.436 9.79007 192.376 10.6925 191.602 11.9003L193.285 12.9797ZM195.577 11.0304C196.609 10.5616 197.759 10.32 199.043 10.32V8.32C197.501 8.32 196.065 8.61173 194.75 9.20963L195.577 11.0304ZM199.043 10.32H199.723V8.32H199.043V10.32ZM199.723 10.32C200.207 10.32 200.674 10.3562 201.127 10.4278L201.439 8.45224C200.879 8.36378 200.307 8.32 199.723 8.32V10.32ZM201.179 10.4345C201.63 10.482 202.05 10.5643 202.441 10.6794L203.006 8.76063C202.49 8.60898 201.95 8.50467 201.388 8.44549L201.179 10.4345ZM202.723 10.72H209.963V8.72H202.723V10.72ZM208.963 9.72V13.64H210.963V9.72H208.963ZM210.121 12.6526L206.121 12.0126L205.805 13.9874L209.805 14.6274L210.121 12.6526ZM205.234 13.6839C205.521 13.9903 205.76 14.3922 205.935 14.9162L207.832 14.2838C207.58 13.5278 207.206 12.863 206.693 12.3161L205.234 13.6839ZM205.952 14.9644C206.133 15.4268 206.243 16.0543 206.243 16.88H208.243C208.243 15.8924 208.114 14.9998 207.815 14.2356L205.952 14.9644ZM206.243 16.88C206.243 18.0616 205.945 19.0278 205.385 19.8251L207.022 20.9749C207.848 19.7988 208.243 18.4184 208.243 16.88H206.243ZM205.382 19.8296C204.825 20.6322 204.061 21.2683 203.062 21.7333L203.905 23.5467C205.199 22.945 206.249 22.0878 207.025 20.9704L205.382 19.8296ZM203.071 21.7289C202.096 22.1699 200.986 22.4 199.723 22.4V24.4C201.234 24.4 202.63 24.1234 203.896 23.5511L203.071 21.7289ZM199.723 22.4H199.043V24.4H199.723V22.4ZM199.043 22.4C198.56 22.4 198.109 22.3637 197.688 22.2936L197.359 24.2664C197.898 24.3563 198.46 24.4 199.043 24.4V22.4ZM196.786 22.6043C196.422 23.0013 196.135 23.4395 195.95 23.921L197.817 24.639C197.898 24.4272 198.038 24.1987 198.261 23.9557L196.786 22.6043ZM195.96 23.8954C195.785 24.3155 195.683 24.7529 195.683 25.2H197.683C197.683 25.0604 197.715 24.8845 197.807 24.6646L195.96 23.8954ZM195.683 25.2C195.683 25.8973 195.92 26.5734 196.519 27.0394C197.071 27.4682 197.781 27.6 198.483 27.6V25.6C197.985 25.6 197.796 25.4985 197.747 25.4606C197.731 25.4481 197.724 25.4384 197.715 25.4186C197.704 25.3928 197.683 25.3276 197.683 25.2H195.683ZM198.483 27.6H203.363V25.6H198.483V27.6ZM203.363 27.6C205.026 27.6 206.255 28.0302 207.153 28.7993L208.454 27.2807C207.111 26.1298 205.381 25.6 203.363 25.6V27.6ZM207.172 28.8156C208.044 29.5253 208.523 30.5496 208.523 32.04H210.523C210.523 30.0637 209.856 28.4214 208.435 27.2644L207.172 28.8156ZM199.723 20.64C200.801 20.64 201.761 20.2659 202.558 19.5385L201.209 18.0615C200.779 18.4541 200.299 18.64 199.723 18.64V20.64ZM202.542 19.5526C203.452 18.7562 203.843 17.636 203.843 16.36H201.843C201.843 17.2174 201.595 17.7238 201.225 18.0474L202.542 19.5526ZM203.843 16.36C203.843 15.084 203.452 13.9638 202.542 13.1674L201.225 14.6726C201.595 14.9962 201.843 15.5026 201.843 16.36H203.843ZM202.558 13.1815C201.761 12.4541 200.801 12.08 199.723 12.08V14.08C200.299 14.08 200.779 14.2659 201.209 14.6585L202.558 13.1815ZM199.723 12.08H199.043V14.08H199.723V12.08ZM199.043 12.08C197.949 12.08 196.968 12.4473 196.145 13.1674L197.462 14.6726C197.919 14.2727 198.431 14.08 199.043 14.08V12.08ZM196.129 13.1815C195.253 13.9815 194.883 15.0972 194.883 16.36H196.883C196.883 15.4895 197.127 14.9785 197.478 14.6585L196.129 13.1815ZM194.883 16.36C194.883 17.6228 195.253 18.7385 196.129 19.5385L197.478 18.0615C197.127 17.7415 196.883 17.2305 196.883 16.36H194.883ZM196.145 19.5526C196.968 20.2727 197.949 20.64 199.043 20.64V18.64C198.431 18.64 197.919 18.4473 197.462 18.0474L196.145 19.5526ZM199.043 20.64H199.723V18.64H199.043V20.64ZM222.053 25.92L222.501 26.8144L222.515 26.8071L222.53 26.7993L222.053 25.92ZM222.373 23.04L221.719 23.7957L221.745 23.8188L221.773 23.84L222.373 23.04ZM220.173 22.12L219.919 23.0871L219.931 23.0901L220.173 22.12ZM217.893 21.52L218.148 20.5529L218.143 20.5516L217.893 21.52ZM213.973 19.24L213.183 19.8526L213.188 19.8587L213.193 19.8647L213.973 19.24ZM214.533 11.08L213.834 10.365L213.834 10.365L214.533 11.08ZM226.813 10.84L227.761 11.1591L228.054 10.289L227.212 9.92293L226.813 10.84ZM225.493 14.76L225.064 15.6629L226.081 16.1476L226.441 15.0791L225.493 14.76ZM222.453 13.64L222.224 14.6134L222.224 14.6134L222.453 13.64ZM217.693 16.44L217.018 17.1772L217.032 17.1906L217.047 17.2034L217.693 16.44ZM219.573 17.24L219.318 18.2067L219.319 18.2071L219.573 17.24ZM221.853 17.84L221.599 18.8071L221.602 18.8078L221.853 17.84ZM226.093 20.16L225.33 20.8059L225.335 20.8116L225.34 20.8171L226.093 20.16ZM225.533 28.64L224.858 27.9028L224.85 27.91L225.533 28.64ZM212.253 28.8L211.303 28.4898L211.016 29.3678L211.869 29.7231L212.253 28.8ZM213.493 25L213.868 24.0729L212.875 23.6714L212.543 24.6898L213.493 25ZM216.893 26.08L217.099 25.1015L217.099 25.1015L216.893 26.08ZM219.613 27.4C220.7 27.4 221.679 27.225 222.501 26.8144L221.606 25.0256C221.147 25.255 220.5 25.4 219.613 25.4V27.4ZM222.53 26.7993C222.968 26.5618 223.35 26.2402 223.619 25.814C223.891 25.3832 224.013 24.9004 224.013 24.4H222.013C222.013 24.5663 221.976 24.6701 221.928 24.746C221.877 24.8265 221.779 24.9315 221.577 25.0407L222.53 26.7993ZM224.013 24.4C224.013 23.5349 223.68 22.7696 222.973 22.24L221.773 23.84C221.921 23.9504 222.013 24.0918 222.013 24.4H224.013ZM223.028 22.2843C222.438 21.773 221.505 21.4221 220.416 21.1499L219.931 23.0901C220.975 23.3513 221.508 23.6137 221.719 23.7957L223.028 22.2843ZM220.428 21.1529L218.148 20.5529L217.639 22.4871L219.919 23.0871L220.428 21.1529ZM218.143 20.5516C216.524 20.1345 215.434 19.4647 214.754 18.6153L213.193 19.8647C214.22 21.1486 215.743 21.9988 217.644 22.4884L218.143 20.5516ZM214.764 18.6274C214.085 17.7516 213.733 16.7054 213.733 15.44H211.733C211.733 17.108 212.208 18.5951 213.183 19.8526L214.764 18.6274ZM213.733 15.44C213.733 13.9659 214.232 12.7734 215.233 11.795L213.834 10.365C212.435 11.7333 211.733 13.4475 211.733 15.44H213.733ZM215.233 11.795C216.171 10.8773 217.721 10.32 220.093 10.32V8.32C217.453 8.32 215.296 8.936 213.834 10.365L215.233 11.795ZM220.093 10.32C221.028 10.32 222.024 10.4307 223.084 10.6578L223.503 8.7022C222.323 8.44932 221.186 8.32 220.093 8.32V10.32ZM223.084 10.6578C224.129 10.8818 225.239 11.2459 226.415 11.7571L227.212 9.92293C225.934 9.36741 224.698 8.9582 223.503 8.7022L223.084 10.6578ZM225.866 10.5209L224.546 14.4409L226.441 15.0791L227.761 11.1591L225.866 10.5209ZM225.923 13.8571C224.759 13.3026 223.677 12.9006 222.682 12.6666L222.224 14.6134C223.043 14.8061 223.988 15.1507 225.064 15.6629L225.923 13.8571ZM222.682 12.6666C221.725 12.4412 220.845 12.32 220.053 12.32V14.32C220.649 14.32 221.369 14.4121 222.224 14.6134L222.682 12.6666ZM220.053 12.32C219.025 12.32 218.079 12.4881 217.363 12.9716C216.578 13.5022 216.213 14.3146 216.213 15.24H218.213C218.213 14.8854 218.322 14.7378 218.484 14.6284C218.715 14.4719 219.188 14.32 220.053 14.32V12.32ZM216.213 15.24C216.213 15.9757 216.456 16.6623 217.018 17.1772L218.369 15.7028C218.291 15.631 218.213 15.5177 218.213 15.24H216.213ZM217.047 17.2034C217.575 17.6496 218.389 17.9608 219.318 18.2067L219.829 16.2733C218.945 16.0392 218.505 15.8171 218.339 15.6766L217.047 17.2034ZM219.319 18.2071L221.599 18.8071L222.108 16.8729L219.828 16.2729L219.319 18.2071ZM221.602 18.8078C223.439 19.286 224.633 19.9822 225.33 20.8059L226.857 19.5141C225.794 18.2578 224.161 17.4074 222.105 16.8722L221.602 18.8078ZM225.34 20.8171C226.065 21.6495 226.453 22.7121 226.453 24.08H228.453C228.453 22.3012 227.935 20.7505 226.847 19.5029L225.34 20.8171ZM226.453 24.08C226.453 25.6899 225.914 26.9343 224.858 27.9028L226.209 29.3772C227.713 27.999 228.453 26.2034 228.453 24.08H226.453ZM224.85 27.91C223.865 28.8325 222.182 29.4 219.573 29.4V31.4C222.405 31.4 224.696 30.7941 226.217 29.37L224.85 27.91ZM219.573 29.4C217.409 29.4 215.1 28.9025 212.638 27.8769L211.869 29.7231C214.527 30.8308 217.098 31.4 219.573 31.4V29.4ZM213.204 29.1102L214.444 25.3102L212.543 24.6898L211.303 28.4898L213.204 29.1102ZM213.119 25.9271C214.411 26.4496 215.602 26.8301 216.687 27.0585L217.099 25.1015C216.158 24.9033 215.082 24.5637 213.868 24.0729L213.119 25.9271ZM216.687 27.0585C217.75 27.2822 218.727 27.4 219.613 27.4V25.4C218.899 25.4 218.064 25.3044 217.099 25.1015L216.687 27.0585Z" fill="black" mask="url(#path-1-outside-1_20_4)"/>
</svg>
